<?xml version="1.0" encoding="UTF-8" standalone="yes"?><svg xmlns="http://www.w3.org/2000/svg" xmlns:xlink="http://www.w3.org/1999/xlink" height="704px" style="width:525px;height:704px;" version="1.1" viewBox="0 0 525 704" width="525px"><defs><filter height="300%" id="f1" width="300%" x="-1" y="-1"><feGaussianBlur result="blurOut" stdDeviation="2.0"/><feColorMatrix in="blurOut" result="blurOut2" type="matrix" values="0 0 0 0 0 0 0 0 0 0 0 0 0 0 0 0 0 0 .4 0"/><feOffset dx="4.0" dy="4.0" in="blurOut2" result="blurOut3"/><feBlend in="SourceGraphic" in2="blurOut3" mode="normal"/></filter></defs><g><ellipse cx="355" cy="20" fill="#000000" filter="url(#f1)" rx="10" ry="10" style="stroke: none; stroke-width: 1.0;"/><rect fill="#FEFECE" filter="url(#f1)" height="65.2813" rx="12.5" ry="12.5" style="stroke: #A80036; stroke-width: 1.5;" width="203" x="253.5" y="50"/><text fill="#000000" font-family="sans-serif" font-size="12" lengthAdjust="spacingAndGlyphs" textLength="44" x="263.5" y="72.457">initialize</text><text fill="#000000" font-family="sans-serif" font-size="12" font-weight="bold" lengthAdjust="spacingAndGlyphs" textLength="14" x="310.5" y="72.457">pc</text><text fill="#000000" font-family="sans-serif" font-size="12" lengthAdjust="spacingAndGlyphs" textLength="10" x="327.5" y="72.457">to</text><text fill="#000000" font-family="sans-serif" font-size="12" font-weight="bold" lengthAdjust="spacingAndGlyphs" textLength="81" x="340.5" y="72.457">start_address</text><text fill="#000000" font-family="sans-serif" font-size="12" lengthAdjust="spacingAndGlyphs" textLength="3" x="421.5" y="72.457">,</text><text fill="#000000" font-family="sans-serif" font-size="12" lengthAdjust="spacingAndGlyphs" textLength="111" x="263.5" y="87.5508">reset stack pointers,</text><text fill="#000000" font-family="sans-serif" font-size="12" lengthAdjust="spacingAndGlyphs" textLength="183" x="263.5" y="102.6445">set internal state to default values</text><rect fill="#FEFECE" filter="url(#f1)" height="35.0938" rx="12.5" ry="12.5" style="stroke: #A80036; stroke-width: 1.5;" width="230" x="240" y="135.2813"/><text fill="#000000" font-family="sans-serif" font-size="12" lengthAdjust="spacingAndGlyphs" textLength="210" x="250" y="157.7383">push the start frame to the return stack</text><rect fill="#FEFECE" filter="url(#f1)" height="35.0938" rx="12.5" ry="12.5" style="stroke: #A80036; stroke-width: 1.5;" width="225" x="242.5" y="234.375"/><text fill="#000000" font-family="sans-serif" font-size="12" lengthAdjust="spacingAndGlyphs" textLength="17" x="252.5" y="256.832">set</text><text fill="#000000" font-family="sans-serif" font-size="12" font-weight="bold" lengthAdjust="spacingAndGlyphs" textLength="3" x="272.5" y="256.832">i</text><text fill="#000000" font-family="sans-serif" font-size="12" lengthAdjust="spacingAndGlyphs" textLength="162" x="278.5" y="256.832">to the instruction pointed to by</text><text fill="#000000" font-family="sans-serif" font-size="12" font-weight="bold" lengthAdjust="spacingAndGlyphs" textLength="14" x="443.5" y="256.832">pc</text><rect fill="#FEFECE" filter="url(#f1)" height="35.0938" rx="12.5" ry="12.5" style="stroke: #A80036; stroke-width: 1.5;" width="124" x="293" y="289.4688"/><text fill="#000000" font-family="sans-serif" font-size="12" lengthAdjust="spacingAndGlyphs" textLength="48" x="303" y="311.9258">increase</text><text fill="#000000" font-family="sans-serif" font-size="12" font-weight="bold" lengthAdjust="spacingAndGlyphs" textLength="14" x="354" y="311.9258">pc</text><text fill="#000000" font-family="sans-serif" font-size="12" lengthAdjust="spacingAndGlyphs" textLength="36" x="371" y="311.9258">by one</text><polygon fill="#FBFB77" filter="url(#f1)" points="10,334.5625,10,426.3203,235,426.3203,235,344.5625,225,334.5625,10,334.5625" style="stroke: #A80036; stroke-width: 1.0;"/><polygon fill="#FBFB77" points="10,334.5625,10,426.3203,235,426.3203,235,384.4414,255,380.4414,235,376.4414,235,344.5625,225,334.5625,10,334.5625" style="stroke: #A80036; stroke-width: 1.0;"/><line style="stroke: #A80036; stroke-width: 1.0;" x1="225" x2="225" y1="334.5625" y2="344.5625"/><line style="stroke: #A80036; stroke-width: 1.0;" x1="235" x2="225" y1="344.5625" y2="344.5625"/><text fill="#000000" font-family="sans-serif" font-size="13" lengthAdjust="spacingAndGlyphs" textLength="204" x="16" y="353.0576">Execution of the primitives modifies</text><text fill="#000000" font-family="sans-serif" font-size="13" lengthAdjust="spacingAndGlyphs" textLength="180" x="16" y="369.4092">internal state.  If primitives read</text><text fill="#000000" font-family="sans-serif" font-size="13" lengthAdjust="spacingAndGlyphs" textLength="188" x="16" y="385.7607">data from the instruction stream,</text><text fill="#000000" font-family="sans-serif" font-size="13" lengthAdjust="spacingAndGlyphs" textLength="78" x="16" y="402.1123">they increase</text><text fill="#000000" font-family="sans-serif" font-size="13" font-weight="bold" lengthAdjust="spacingAndGlyphs" textLength="15" x="98" y="402.1123">pc</text><text fill="#000000" font-family="sans-serif" font-size="13" lengthAdjust="spacingAndGlyphs" textLength="84" x="117" y="402.1123">accordingly so</text><text fill="#000000" font-family="sans-serif" font-size="13" lengthAdjust="spacingAndGlyphs" textLength="180" x="16" y="418.4639">it points to the next instruction.</text><rect fill="#FEFECE" filter="url(#f1)" height="35.0938" rx="12.5" ry="12.5" style="stroke: #A80036; stroke-width: 1.5;" width="200" x="255" y="362.8945"/><text fill="#000000" font-family="sans-serif" font-size="12" lengthAdjust="spacingAndGlyphs" textLength="174" x="265" y="385.3516">execute the primitive denoted by</text><text fill="#000000" font-family="sans-serif" font-size="12" font-weight="bold" lengthAdjust="spacingAndGlyphs" textLength="3" x="442" y="385.3516">i</text><polygon fill="#FEFECE" filter="url(#f1)" points="248.5,446.8945,461.5,446.8945,473.5,458.8945,461.5,470.8945,248.5,470.8945,236.5,458.8945,248.5,446.8945" style="stroke: #A80036; stroke-width: 1.5;"/><text fill="#000000" font-family="sans-serif" font-size="11" lengthAdjust="spacingAndGlyphs" textLength="213" x="248.5" y="463.3955">error encountered during primitive execution</text><text fill="#000000" font-family="sans-serif" font-size="11" lengthAdjust="spacingAndGlyphs" textLength="18" x="218.5" y="456.4775">yes</text><text fill="#000000" font-family="sans-serif" font-size="11" lengthAdjust="spacingAndGlyphs" textLength="12" x="473.5" y="456.4775">no</text><rect fill="#FEFECE" filter="url(#f1)" height="35.0938" rx="12.5" ry="12.5" style="stroke: #A80036; stroke-width: 1.5;" width="155" x="149" y="480.8945"/><text fill="#000000" font-family="sans-serif" font-size="12" lengthAdjust="spacingAndGlyphs" textLength="135" x="159" y="503.3516">return internal error code</text><ellipse cx="226.5" cy="547.9414" fill="none" filter="url(#f1)" rx="10" ry="10" style="stroke: #000000; stroke-width: 1.0;"/><ellipse cx="227" cy="548.4414" fill="#000000" filter="url(#f1)" rx="6" ry="6" style="stroke: none; stroke-width: 1.0;"/><polygon fill="#FEFECE" filter="url(#f1)" points="355,190.375,367,202.375,355,214.375,343,202.375,355,190.375" style="stroke: #A80036; stroke-width: 1.5;"/><polygon fill="#FEFECE" filter="url(#f1)" points="338,577.9414,372,577.9414,384,589.9414,372,601.9414,338,601.9414,326,589.9414,338,577.9414" style="stroke: #A80036; stroke-width: 1.5;"/><text fill="#000000" font-family="sans-serif" font-size="11" font-weight="bold" lengthAdjust="spacingAndGlyphs" textLength="3" x="338" y="594.4424">i</text><text fill="#000000" font-family="sans-serif" font-size="11" lengthAdjust="spacingAndGlyphs" textLength="28" x="344" y="594.4424">!= quit</text><rect fill="#FEFECE" filter="url(#f1)" height="35.0938" rx="12.5" ry="12.5" style="stroke: #A80036; stroke-width: 1.5;" width="62" x="324" y="621.9414"/><text fill="#000000" font-family="sans-serif" font-size="12" lengthAdjust="spacingAndGlyphs" textLength="42" x="334" y="644.3984">return 0</text><ellipse cx="355" cy="687.0352" fill="none" filter="url(#f1)" rx="10" ry="10" style="stroke: #000000; stroke-width: 1.0;"/><ellipse cx="355.5" cy="687.5352" fill="#000000" filter="url(#f1)" rx="6" ry="6" style="stroke: none; stroke-width: 1.0;"/><line style="stroke: #A80036; stroke-width: 1.5;" x1="355" x2="355" y1="30" y2="50"/><polygon fill="#A80036" points="351,40,355,50,359,40,355,44" style="stroke: #A80036; stroke-width: 1.0;"/><line style="stroke: #A80036; stroke-width: 1.5;" x1="355" x2="355" y1="115.2813" y2="135.2813"/><polygon fill="#A80036" points="351,125.2813,355,135.2813,359,125.2813,355,129.2813" style="stroke: #A80036; stroke-width: 1.0;"/><line style="stroke: #A80036; stroke-width: 1.5;" x1="355" x2="355" y1="269.4688" y2="289.4688"/><polygon fill="#A80036" points="351,279.4688,355,289.4688,359,279.4688,355,283.4688" style="stroke: #A80036; stroke-width: 1.0;"/><line style="stroke: #A80036; stroke-width: 1.5;" x1="355" x2="355" y1="324.5625" y2="362.8945"/><polygon fill="#A80036" points="351,352.8945,355,362.8945,359,352.8945,355,356.8945" style="stroke: #A80036; stroke-width: 1.0;"/><line style="stroke: #A80036; stroke-width: 1.5;" x1="226.5" x2="226.5" y1="515.9883" y2="537.9414"/><polygon fill="#A80036" points="222.5,527.9414,226.5,537.9414,230.5,527.9414,226.5,531.9414" style="stroke: #A80036; stroke-width: 1.0;"/><line style="stroke: #A80036; stroke-width: 1.5;" x1="236.5" x2="226.5" y1="458.8945" y2="458.8945"/><line style="stroke: #A80036; stroke-width: 1.5;" x1="226.5" x2="226.5" y1="458.8945" y2="480.8945"/><polygon fill="#A80036" points="222.5,470.8945,226.5,480.8945,230.5,470.8945,226.5,474.8945" style="stroke: #A80036; stroke-width: 1.0;"/><line style="stroke: #A80036; stroke-width: 1.5;" x1="473.5" x2="483.5" y1="458.8945" y2="458.8945"/><polygon fill="#A80036" points="479.5,507.9414,483.5,517.9414,487.5,507.9414,483.5,511.9414" style="stroke: #A80036; stroke-width: 1.5;"/><line style="stroke: #A80036; stroke-width: 1.5;" x1="483.5" x2="483.5" y1="458.8945" y2="562.9414"/><line style="stroke: #A80036; stroke-width: 1.5;" x1="483.5" x2="355" y1="562.9414" y2="562.9414"/><line style="stroke: #A80036; stroke-width: 1.5;" x1="355" x2="355" y1="562.9414" y2="577.9414"/><polygon fill="#A80036" points="351,567.9414,355,577.9414,359,567.9414,355,571.9414" style="stroke: #A80036; stroke-width: 1.0;"/><line style="stroke: #A80036; stroke-width: 1.5;" x1="355" x2="355" y1="397.9883" y2="446.8945"/><polygon fill="#A80036" points="351,436.8945,355,446.8945,359,436.8945,355,440.8945" style="stroke: #A80036; stroke-width: 1.0;"/><line style="stroke: #A80036; stroke-width: 1.5;" x1="355" x2="355" y1="214.375" y2="234.375"/><polygon fill="#A80036" points="351,224.375,355,234.375,359,224.375,355,228.375" style="stroke: #A80036; stroke-width: 1.0;"/><line style="stroke: #A80036; stroke-width: 1.5;" x1="384" x2="520.5" y1="589.9414" y2="589.9414"/><polygon fill="#A80036" points="516.5,426.8945,520.5,416.8945,524.5,426.8945,520.5,422.8945" style="stroke: #A80036; stroke-width: 1.5;"/><line style="stroke: #A80036; stroke-width: 1.5;" x1="520.5" x2="520.5" y1="202.375" y2="589.9414"/><line style="stroke: #A80036; stroke-width: 1.5;" x1="520.5" x2="367" y1="202.375" y2="202.375"/><polygon fill="#A80036" points="377,198.375,367,202.375,377,206.375,373,202.375" style="stroke: #A80036; stroke-width: 1.0;"/><line style="stroke: #A80036; stroke-width: 1.5;" x1="355" x2="355" y1="170.375" y2="190.375"/><polygon fill="#A80036" points="351,180.375,355,190.375,359,180.375,355,184.375" style="stroke: #A80036; stroke-width: 1.0;"/><line style="stroke: #A80036; stroke-width: 1.5;" x1="355" x2="355" y1="601.9414" y2="621.9414"/><polygon fill="#A80036" points="351,611.9414,355,621.9414,359,611.9414,355,615.9414" style="stroke: #A80036; stroke-width: 1.0;"/><line style="stroke: #A80036; stroke-width: 1.5;" x1="355" x2="355" y1="657.0352" y2="677.0352"/><polygon fill="#A80036" points="351,667.0352,355,677.0352,359,667.0352,355,671.0352" style="stroke: #A80036; stroke-width: 1.0;"/></g></svg>